<?xml version="1.0" encoding="UTF-8"?>
<svg clip-rule="evenodd" fill-rule="evenodd" stroke-linejoin="round" stroke-miterlimit="1.4142" version="1.1" viewBox="0 0 32 32" xml:space="preserve" xmlns="http://www.w3.org/2000/svg"><rect id="pansexual_flag" width="32" height="32" fill="none"/><clipPath id="_clip1"><rect width="32" height="32"/></clipPath><g clip-path="url(#_clip1)"><g id="outline"><path d="m32 6c0-0.53-0.211-1.039-0.586-1.414s-0.884-0.586-1.414-0.586h-28c-0.53 0-1.039 0.211-1.414 0.586s-0.586 0.884-0.586 1.414v20c0 0.53 0.211 1.039 0.586 1.414s0.884 0.586 1.414 0.586h28c0.53 0 1.039-0.211 1.414-0.586s0.586-0.884 0.586-1.414v-20z"/></g><g id="emoji"><rect x="2" y="6" width="28" height="20" fill="none"/><clipPath id="_clip2"><rect x="2" y="6" width="28" height="20"/></clipPath><g clip-path="url(#_clip2)"><rect x="1" y="18.5" width="30" height="8.5" fill="#640082"/><rect x="1" y="12" width="30" height="7.333" fill="#a90eb1"/><rect x="1" y="5" width="30" height="7.667" fill="#f10dc3"/></g></g></g></svg>
